<?xml version="1.0" standalone="no"?>
<!DOCTYPE svg PUBLIC "-//W3C//DTD SVG 20010904//EN"
 "http://www.w3.org/TR/2001/REC-SVG-20010904/DTD/svg10.dtd">
<svg version="1.0" xmlns="http://www.w3.org/2000/svg"
 width="512.000000pt" height="512.000000pt" viewBox="0 0 512.000000 512.000000"
 preserveAspectRatio="xMidYMid meet">

<g transform="translate(0.000000,512.000000) scale(0.100000,-0.100000)"
fill="#000000" stroke="none">
<path d="M1710 3829 c-25 -5 -76 -24 -115 -43 -174 -86 -293 -259 -326 -472
-11 -77 -10 -88 42 -396 29 -175 55 -316 57 -314 2 2 8 37 13 78 28 208 107
376 240 515 l51 53 60 -55 c99 -92 207 -135 337 -135 92 0 161 17 237 59 47
26 60 29 66 17 25 -45 107 -132 162 -170 133 -95 258 -132 415 -123 197 11
360 100 479 262 24 33 47 58 51 56 17 -11 86 -113 116 -172 65 -127 90 -224
105 -403 9 -109 23 -152 34 -105 3 13 33 186 67 384 60 353 61 362 50 443 -30
215 -152 393 -326 477 -38 19 -90 39 -115 44 -56 13 -1634 13 -1700 0z"/>
<path d="M1982 2729 c-105 -20 -217 -97 -268 -185 -65 -111 -72 -260 -18 -374
106 -224 386 -300 589 -160 82 57 165 189 165 263 0 38 19 47 103 47 90 0 117
-10 117 -45 0 -76 82 -208 165 -265 115 -79 271 -93 395 -34 136 64 222 192
228 340 10 214 -123 378 -337 415 -192 34 -399 -102 -443 -290 l-11 -50 -107
0 -107 0 -11 50 c-32 139 -164 261 -311 289 -61 11 -88 11 -149 -1z m188 -138
c102 -52 151 -127 158 -241 4 -67 1 -85 -20 -131 -86 -187 -319 -230 -466 -86
-102 100 -109 262 -17 383 74 96 236 132 345 75z m1027 0 c62 -31 105 -73 133
-128 34 -66 36 -197 3 -258 -114 -214 -418 -208 -519 10 -28 60 -32 149 -8
217 27 81 101 148 194 179 44 15 152 4 197 -20z"/>
<path d="M2072 2387 c-92 -92 -101 -105 -87 -117 14 -12 29 -1 120 90 80 80
102 107 93 117 -6 7 -13 13 -17 13 -3 0 -53 -46 -109 -103z"/>
<path d="M1970 2365 c-83 -83 -102 -107 -92 -117 10 -10 34 9 118 93 85 85
103 108 92 117 -11 9 -35 -10 -118 -93z"/>
<path d="M2027 2252 c-31 -32 -57 -63 -57 -69 0 -32 28 -20 86 38 49 48 61 66
52 76 -6 7 -13 13 -17 13 -4 0 -32 -26 -64 -58z"/>
<path d="M3122 2397 c-83 -84 -101 -106 -90 -115 11 -9 35 10 117 92 90 90
113 126 83 126 -4 0 -54 -46 -110 -103z"/>
<path d="M3012 2377 c-92 -92 -101 -105 -87 -117 14 -12 29 -1 121 91 57 57
103 108 101 114 -9 27 -41 7 -135 -88z"/>
<path d="M3075 2260 c-47 -47 -57 -62 -47 -72 10 -10 26 1 77 52 60 59 71 80
42 80 -7 0 -39 -27 -72 -60z"/>
<path d="M2436 1949 c-68 -68 -85 -79 -122 -79 -23 0 -39 8 -52 25 -16 21 -21
22 -26 9 -16 -42 45 -84 122 -84 57 0 100 16 160 59 l42 31 43 -31 c59 -43
102 -59 159 -59 77 0 138 42 122 84 -5 13 -10 12 -26 -9 -13 -17 -29 -25 -52
-25 -37 0 -54 11 -122 79 l-51 51 -73 0 -73 0 -51 -51z"/>
<path d="M1784 1372 c-21 -16 -67 -56 -101 -90 -172 -170 -273 -382 -299 -629
l-6 -63 246 0 246 0 2 -247 3 -248 65 -17 c166 -45 427 -78 620 -78 193 0 454
33 620 78 l65 17 3 248 2 247 246 0 246 0 -6 63 c-20 186 -87 364 -190 505
-53 72 -156 176 -215 217 l-40 27 -64 -16 c-39 -10 -106 -16 -178 -16 l-114 0
-140 -96 c-77 -52 -143 -98 -147 -102 -4 -4 21 -141 55 -303 l63 -295 -101
-107 c-55 -59 -104 -107 -110 -106 -5 0 -53 48 -106 105 l-95 105 63 297 c34
163 59 300 55 304 -4 4 -70 50 -147 102 l-140 96 -115 0 c-71 0 -138 6 -173
15 -74 19 -67 20 -113 -13z"/>
</g>
</svg>
