<?xml version="1.0" standalone="no"?>
<!DOCTYPE svg PUBLIC "-//W3C//DTD SVG 20010904//EN"
 "http://www.w3.org/TR/2001/REC-SVG-20010904/DTD/svg10.dtd">
<svg version="1.0" xmlns="http://www.w3.org/2000/svg"
 width="512.000000pt" height="512.000000pt" viewBox="0 0 512.000000 512.000000"
 preserveAspectRatio="xMidYMid meet">

<g transform="translate(0.000000,512.000000) scale(0.100000,-0.100000)"
fill="#000000" stroke="none">
<path d="M795 5095 l-25 -24 0 -1058 c1 -816 3 -1062 13 -1074 30 -39 23 -39
1101 -39 l1045 0 28 24 28 24 0 1062 0 1062 -28 24 -28 24 -1055 0 -1055 0
-24 -25z m2015 -915 l0 -250 -420 0 -420 0 0 250 0 250 420 0 420 0 0 -250z"/>
<path d="M2303 4265 c-20 -41 -35 -76 -33 -79 15 -13 332 -166 338 -162 11 6
76 145 71 150 -6 6 -328 166 -334 166 -3 0 -22 -34 -42 -75z"/>
<path d="M3186 4755 l-26 -24 0 -800 c0 -440 3 -807 6 -816 14 -35 58 -45 199
-45 l135 0 0 -340 0 -340 -170 0 -170 0 0 139 c0 135 -1 140 -26 170 l-26 31
-1144 0 -1145 0 -24 -25 -25 -24 0 -1316 0 -1316 25 -24 24 -25 1145 0 1144 0
26 31 26 31 0 733 0 734 498 3 c549 3 529 1 607 69 21 19 49 56 61 84 l24 50
0 1071 0 1071 -26 24 c-24 23 -33 24 -170 27 l-144 3 0 143 c0 140 0 143 -26
167 -24 23 -33 24 -170 27 l-144 3 0 226 0 225 -29 29 -29 29 -200 0 c-197 0
-199 0 -226 -25z m-1396 -4245 l0 -340 -425 0 -425 0 0 340 0 340 425 0 425 0
0 -340z"/>
</g>
</svg>
